<svg xmlns="http://www.w3.org/2000/svg" viewBox="63 -3 270 50" width="270" height="50">
  <defs>
    <marker id="arrow" viewBox="0 0 10 10" markerWidth="6" markerHeight="6" refX="8" refY="5" orient="auto-start-reverse">
      <path d="M0,0 L10,5 L0,10 z" fill="#000000"/>
    </marker>
  </defs>
  <rect x="66" y="0" width="264" height="44" fill="#ffffff" stroke="#000000" stroke-width="1"/>
  <path d="M 77,37 Q 99,12 121,37" fill="none" stroke="#000000" stroke-width="1.5" marker-end="url(#arrow)"/>
  <text x="99" y="21.5" fill="#000000" font-family="Georgia, 'Times New Roman', Times, serif" font-size="10" text-anchor="middle">W</text>
  <path d="M 121,37 Q 143,12 165,37" fill="none" stroke="#000000" stroke-width="1.5" marker-end="url(#arrow)"/>
  <text x="143" y="21.5" fill="#000000" font-family="Georgia, 'Times New Roman', Times, serif" font-size="10" text-anchor="middle">W</text>
  <path d="M 165,37 Q 176,12 187,37" fill="none" stroke="#000000" stroke-width="1.5" marker-end="url(#arrow)"/>
  <text x="176" y="21.5" fill="#000000" font-family="Georgia, 'Times New Roman', Times, serif" font-size="10" text-anchor="middle">H</text>
  <path d="M 187,37 Q 209,12 231,37" fill="none" stroke="#000000" stroke-width="1.5" marker-end="url(#arrow)"/>
  <text x="209" y="21.5" fill="#000000" font-family="Georgia, 'Times New Roman', Times, serif" font-size="10" text-anchor="middle">W</text>
  <path d="M 231,37 Q 253,12 275,37" fill="none" stroke="#000000" stroke-width="1.5" marker-end="url(#arrow)"/>
  <text x="253" y="21.5" fill="#000000" font-family="Georgia, 'Times New Roman', Times, serif" font-size="10" text-anchor="middle">W</text>
  <path d="M 275,37 Q 297,12 319,37" fill="none" stroke="#000000" stroke-width="1.5" marker-end="url(#arrow)"/>
  <text x="297" y="21.5" fill="#000000" font-family="Georgia, 'Times New Roman', Times, serif" font-size="10" text-anchor="middle">W</text>
</svg>
